<svg width="512" height="512" viewBox="0 0 512 512" fill="none" xmlns="http://www.w3.org/2000/svg">
  <!-- Background circle -->
  <circle cx="256" cy="256" r="240" fill="#1E3A8A" stroke="#3B82F6" stroke-width="32"/>
  
  <!-- Calendar base -->
  <rect x="128" y="160" width="256" height="192" rx="16" fill="#FFFFFF"/>
  
  <!-- Calendar header -->
  <rect x="128" y="160" width="256" height="48" rx="16" fill="#3B82F6"/>
  <rect x="128" y="192" width="256" height="16" fill="#3B82F6"/>
  
  <!-- Calendar rings -->
  <circle cx="176" cy="144" r="8" fill="#64748B"/>
  <circle cx="336" cy="144" r="8" fill="#64748B"/>
  <rect x="172" y="120" width="8" height="48" fill="#64748B"/>
  <rect x="332" y="120" width="8" height="48" fill="#64748B"/>
  
  <!-- Calendar grid -->
  <line x1="160" y1="240" x2="352" y2="240" stroke="#E5E7EB" stroke-width="2"/>
  <line x1="160" y1="272" x2="352" y2="272" stroke="#E5E7EB" stroke-width="2"/>
  <line x1="160" y1="304" x2="352" y2="304" stroke="#E5E7EB" stroke-width="2"/>
  
  <line x1="192" y1="208" x2="192" y2="336" stroke="#E5E7EB" stroke-width="2"/>
  <line x1="224" y1="208" x2="224" y2="336" stroke="#E5E7EB" stroke-width="2"/>
  <line x1="256" y1="208" x2="256" y2="336" stroke="#E5E7EB" stroke-width="2"/>
  <line x1="288" y1="208" x2="288" y2="336" stroke="#E5E7EB" stroke-width="2"/>
  <line x1="320" y1="208" x2="320" y2="336" stroke="#E5E7EB" stroke-width="2"/>
  
  <!-- Highlighted date -->
  <circle cx="240" cy="256" r="12" fill="#F59E0B"/>
  
  <!-- Chain symbol -->
  <path d="M280 288L296 304L312 288L296 272L280 288Z" fill="#3B82F6"/>
  <path d="M264 304L280 320L296 304L280 288L264 304Z" fill="#3B82F6"/>
  <path d="M296 304L312 320L328 304L312 288L296 304Z" fill="#3B82F6"/>
</svg>
